<svg width="33" height="33" viewBox="0 0 33 33" fill="none" xmlns="http://www.w3.org/2000/svg">
<path fill-rule="evenodd" clip-rule="evenodd" d="M3.25018 1.25443C3.25018 1.04353 3.42842 0.872559 3.64829 0.872559H32.3116C32.5315 0.872559 32.7097 1.04353 32.7097 1.25443V28.8768C32.7097 29.0877 32.5315 29.2586 32.3116 29.2586C32.0918 29.2586 31.9135 29.0877 31.9135 28.8768V1.63631H3.64829C3.42842 1.63631 3.25018 1.46534 3.25018 1.25443Z" fill="white" stroke="white" stroke-width="0.5" stroke-linecap="round" stroke-linejoin="round"/>
<path d="M3.66797 29.4345L3.79297 29.4345L3.79297 29.3095L3.79297 5.55062L5.41886 7.17651C5.62192 7.37957 5.95114 7.37957 6.1542 7.17651C6.35725 6.97345 6.35726 6.64423 6.1542 6.44117L3.64068 3.92765C3.43762 3.7246 3.1084 3.7246 2.90534 3.92765L0.391825 6.44117C0.188767 6.64423 0.188768 6.97345 0.391824 7.17651C0.594882 7.37957 0.924103 7.37957 1.12716 7.17651L2.75305 5.55062L2.75305 29.3095L2.75305 29.4345L2.87805 29.4345L3.66797 29.4345Z" fill="white" stroke="white" stroke-width="0.25"/>
<path d="M2.75208 29.7046V29.8296H2.87708L26.7604 29.8296L25.1263 31.4553C24.9221 31.6584 24.9221 31.988 25.1263 32.1911C25.3301 32.3938 25.6602 32.3938 25.8641 32.1911L28.3907 29.6776C28.5949 29.4745 28.5949 29.1449 28.3907 28.9418L25.8641 26.4282C25.6602 26.2255 25.3301 26.2255 25.1263 26.4282C24.9221 26.6314 24.9221 26.9609 25.1263 27.164L26.7604 28.7897L2.87708 28.7897H2.75208V28.9147V29.7046Z" fill="white" stroke="white" stroke-width="0.25"/>
<path fill-rule="evenodd" clip-rule="evenodd" d="M14.1625 0.98824C14.3167 1.14248 14.3167 1.39256 14.1625 1.5468L9.42296 6.28633C9.26872 6.44058 9.01864 6.44058 8.8644 6.28633C8.71016 6.13209 8.71016 5.88202 8.8644 5.72778L13.6039 0.98824C13.7582 0.833998 14.0083 0.833998 14.1625 0.98824Z" fill="white" stroke="white" stroke-width="0.5" stroke-linecap="round" stroke-linejoin="round"/>
<path fill-rule="evenodd" clip-rule="evenodd" d="M32.4624 19.8148C32.6167 19.9691 32.6167 20.2191 32.4624 20.3734L28.1178 24.718C27.9636 24.8722 27.7135 24.8722 27.5593 24.718C27.405 24.5637 27.405 24.3136 27.5593 24.1594L31.9039 19.8148C32.0581 19.6606 32.3082 19.6606 32.4624 19.8148Z" fill="white" stroke="white" stroke-width="0.5" stroke-linecap="round" stroke-linejoin="round"/>
<path fill-rule="evenodd" clip-rule="evenodd" d="M20.0851 0.986467C20.2403 1.13972 20.2419 1.38979 20.0886 1.54502L9.81963 11.9457C9.66637 12.1009 9.4163 12.1025 9.26108 11.9492C9.10586 11.796 9.10427 11.5459 9.25752 11.3907L19.5265 0.990025C19.6798 0.834803 19.9298 0.833211 20.0851 0.986467Z" fill="white" stroke="white" stroke-width="0.5" stroke-linecap="round" stroke-linejoin="round"/>
<path fill-rule="evenodd" clip-rule="evenodd" d="M32.594 13.2315C32.7482 13.3857 32.7482 13.6358 32.594 13.79L22.5883 23.7957C22.434 23.95 22.184 23.95 22.0297 23.7957C21.8755 23.6415 21.8755 23.3914 22.0297 23.2372L32.0354 13.2315C32.1896 13.0772 32.4397 13.0772 32.594 13.2315Z" fill="white" stroke="white" stroke-width="0.5" stroke-linecap="round" stroke-linejoin="round"/>
<path fill-rule="evenodd" clip-rule="evenodd" d="M26.4085 1.12171C26.5615 1.27719 26.5595 1.52726 26.404 1.68025L9.94731 17.8737C9.79183 18.0267 9.54176 18.0246 9.38877 17.8692C9.23577 17.7137 9.23779 17.4636 9.39327 17.3106L25.85 1.11721C26.0055 0.964214 26.2555 0.966231 26.4085 1.12171Z" fill="white" stroke="white" stroke-width="0.5" stroke-linecap="round" stroke-linejoin="round"/>
<path fill-rule="evenodd" clip-rule="evenodd" d="M32.5941 7.04403C32.7483 7.19827 32.7483 7.44834 32.5941 7.60259L16.0057 24.191C15.8515 24.3452 15.6014 24.3452 15.4472 24.191C15.2929 24.0367 15.2929 23.7866 15.4472 23.6324L32.0355 7.04403C32.1898 6.88978 32.4399 6.88978 32.5941 7.04403Z" fill="white" stroke="white" stroke-width="0.5" stroke-linecap="round" stroke-linejoin="round"/>
<path fill-rule="evenodd" clip-rule="evenodd" d="M32.3308 1.11945C32.485 1.27369 32.485 1.52377 32.3308 1.67801L9.68633 24.3225C9.53208 24.4767 9.28201 24.4767 9.12777 24.3225C8.97352 24.1682 8.97352 23.9181 9.12777 23.7639L31.7722 1.11945C31.9265 0.965208 32.1765 0.965208 32.3308 1.11945Z" fill="white" stroke="white" stroke-width="0.5" stroke-linecap="round" stroke-linejoin="round"/>
</svg>
